<?xml version="1.0" encoding="utf-8"?>
<!-- Generator: Adobe Illustrator 26.3.1, SVG Export Plug-In . SVG Version: 6.00 Build 0)  -->
<svg version="1.1" id="Layer_1" xmlns="http://www.w3.org/2000/svg" xmlns:xlink="http://www.w3.org/1999/xlink" x="0px" y="0px"
	 viewBox="0 0 36 36" style="enable-background:new 0 0 36 36;" xml:space="preserve">
<style type="text/css">
	.st0{fill:#1A3A52;}
	.st1{fill:#FFFFFF;}
</style>
<g>
	<path class="st0" d="M0,18C0,8.1,8,0,18,0s18,8,18,18s-8,18-18,18S0,28,0,18"/>
	<path class="st1" d="M3.4,19.4v1.2h3.1c1.7,0,3.2,1.9,3.2,4.2V28h1.2v-3.2c0-2.3,1.4-4.2,3.2-4.2h7.6c1.7,0,3.2,1.9,3.2,4.2V28H26
		v-3.2c0-2.3,1.4-4.2,3.2-4.2h3.4v-1.2h-2.5c-1.2,0-2.5-0.5-3.6-1.3c1.1-0.9,2.4-1.3,3.6-1.3h2.5v-1.2h-3.3c-1.7,0-3.2-1.9-3.2-4.2
		V8H25v3.2c0,2.3-1.4,4.2-3.2,4.2h-7.6c-1.7,0-3.2-1.9-3.2-4.2V8H9.8v3.2c0,2.3-1.4,4.2-3.2,4.2H3.4v1.2h2.3c1.2,0,2.4,0.5,3.6,1.3
		c-1.1,0.9-2.3,1.3-3.6,1.3L3.4,19.4L3.4,19.4z M10.3,22.1c-0.4-0.9-1.1-1.7-1.8-2.1c0.6-0.3,1.2-0.7,1.8-1.1
		c0.6,0.5,1.2,0.9,1.8,1.2C11.3,20.5,10.7,21.2,10.3,22.1 M25.4,22.1c-0.4-0.9-1-1.6-1.8-2.1c0.6-0.3,1.2-0.6,1.7-1l0.2-0.1l0.2,0.1
		c0.5,0.4,1.1,0.7,1.6,1C26.5,20.4,25.9,21.1,25.4,22.1 M25.6,13.9c0.4,0.9,1.1,1.7,1.8,2.1c-0.6,0.3-1.2,0.6-1.7,1l-0.2,0.1
		l-0.2-0.1c-0.5-0.4-1.1-0.7-1.6-1C24.5,15.6,25.1,14.9,25.6,13.9 M21,16.7c1.2,0,2.5,0.5,3.6,1.3c-1.1,0.9-2.4,1.3-3.6,1.3h-6.3
		c-1.2,0-2.4-0.5-3.6-1.3c1.1-0.9,2.3-1.3,3.6-1.3H21z M10.4,13.9c0.4,0.9,1,1.6,1.7,2.1c-0.7,0.3-1.3,0.7-1.9,1.2
		c-0.5-0.4-1.1-0.8-1.7-1.1C9.3,15.7,10,14.9,10.4,13.9"/>
</g>
</svg>
