<?xml version="1.0" encoding="UTF-8"?><svg id="Layer_1" xmlns="http://www.w3.org/2000/svg" viewBox="0 0 313.14 294.21"><defs><style>.cls-1{fill:#0064a6;}.cls-2{fill:#fff;}.cls-3{fill:#b62225;}</style></defs><g><g><path class="cls-1" d="M305.26,81.29c14.05,64.26,2.06,157.64-147.32,209.23,0,0-185.29-59.24-149.98-209.23H305.26Z"/><path class="cls-2" d="M157.98,294.21l-1.11-.35c-.47-.15-47.42-15.4-89.35-48.97-24.76-19.82-42.99-42.08-54.2-66.15C-.73,148.54-3.69,115.49,4.55,80.49l.63-2.7H308.08l.6,2.75c8.86,40.5,4.47,79.14-12.7,111.74-23.17,44.01-69.23,78.17-136.9,101.54l-1.1,.38ZM10.75,84.79c-13.07,59.59,7.44,111.56,61,154.51,37.42,30.01,78.98,45.05,86.17,47.52,142.88-49.77,157.87-136.71,144.5-202.03H10.75Z"/></g><g><path class="cls-3" d="M157.2,8.92s28.05,6.69,61.54,6.05c25.27-.41,56.68-10.73,56.68-10.73,0,0,17.99,33.72,29.79,77.05H7.96C19.76,37.97,37.77,4.24,37.77,4.24c0,0,31.44,10.32,56.72,10.73,33.52,.63,61.58-6.05,61.58-6.05"/><path class="cls-2" d="M309.79,84.79H3.38l1.2-4.42C16.35,37.17,34.5,2.94,34.68,2.59L36.07,0l2.79,.92c.31,.1,31.24,10.16,55.69,10.55,32.67,.62,60.44-5.89,60.72-5.96l1.35-.57,1.4,.57c.28,.07,28.05,6.59,60.66,5.96,24.46-.4,55.35-10.45,55.66-10.55l2.79-.92,1.38,2.6c.18,.34,18.31,34.57,30.08,77.78l1.2,4.42Zm-153.09-7h143.9c-9.64-33.67-22.78-61.04-26.94-69.33-8.4,2.56-33.52,9.66-54.86,10-32.27,.61-59.12-5.39-62.16-6.09-3.04,.7-29.92,6.7-62.21,6.09-21.35-.35-46.49-7.44-54.89-10-4.17,8.28-17.32,35.66-26.96,69.33H156.7Z"/></g><g><path class="cls-2" d="M157.79,162.51v20.38h-12.88v21.93h-24.05v-21.93h-43.16v-22.5l44.15-54.19h23.06v56.32h12.88Zm-36.22,0v-31.84h-.28l-24.9,31.84h25.19Z"/><path class="cls-2" d="M170.24,144.26v-17.69c13.87,.28,28.16-4.81,29.15-20.38h19.95v98.62h-25.47v-60.56h-23.63Z"/></g></g><g><path class="cls-2" d="M45.71,62.25v-25.9h5.14v25.9h-5.14Z"/><path class="cls-2" d="M74.31,62.25l-9.51-14.13c-.32-.49-.66-1.02-1.02-1.57-.36-.56-.62-1-.8-1.35,0,.25,0,.61,.02,1.09,.01,.48,.02,1.01,.02,1.57s0,1.09,.02,1.63c.01,.54,.02,1,.02,1.37v11.4h-5.14v-25.9h5l9.15,13.69c.32,.49,.66,1.02,1.01,1.57,.36,.56,.62,1.01,.79,1.35,0-.25,0-.61-.02-1.09-.01-.48-.02-.99-.02-1.54s0-1.12-.02-1.67c-.01-.54-.02-1-.02-1.37v-10.95h5.14v25.9h-4.62Z"/><path class="cls-2" d="M96.47,41.42v20.83h-5.14v-20.83h-7.44v-5.07h20.02v5.07h-7.44Z"/><path class="cls-2" d="M108.94,62.25v-25.9h17.94v5.07h-12.8v4.44h7.44v5.07h-7.44v6.25h13.36v5.07h-18.5Z"/><path class="cls-2" d="M148,62.25l-4.64-9.32h-5.23v9.32h-5.14v-25.9h12.06c1.21,0,2.35,.17,3.44,.5,1.08,.33,2.04,.85,2.85,1.54,.81,.69,1.46,1.55,1.92,2.57,.47,1.02,.7,2.23,.7,3.61,0,1.95-.41,3.55-1.24,4.79-.83,1.25-2.07,2.19-3.72,2.83l4.96,10.06h-5.97Zm-.34-20.08c-.66-.5-1.57-.75-2.73-.75h-6.79v6.62h6.79c2.48,0,3.71-1.12,3.71-3.35,0-1.18-.33-2.02-.98-2.52Z"/><path class="cls-2" d="M177.8,57.78c-.4,1.01-1.01,1.88-1.85,2.6-.84,.73-1.89,1.29-3.16,1.68-1.27,.39-2.79,.59-4.57,.59-2.17,0-4.14-.42-5.92-1.26-1.78-.84-3.16-1.99-4.14-3.44l3.74-3.33c.91,1.06,1.93,1.82,3.05,2.28,1.12,.46,2.31,.68,3.57,.68,1.55,0,2.69-.22,3.42-.67,.73-.44,1.09-1.16,1.09-2.15,0-.42-.07-.78-.22-1.09-.15-.31-.43-.6-.83-.87-.41-.27-.99-.53-1.76-.78s-1.75-.51-2.96-.78c-1.18-.27-2.28-.59-3.27-.96-1-.37-1.86-.84-2.57-1.41-.72-.57-1.27-1.28-1.67-2.15-.39-.86-.59-1.94-.59-3.22,0-1.18,.24-2.24,.72-3.18,.48-.94,1.14-1.73,1.98-2.39,.84-.65,1.82-1.15,2.94-1.5,1.12-.35,2.32-.52,3.61-.52,2.02,0,3.79,.36,5.31,1.08,1.52,.72,2.89,1.73,4.12,3.02l-3.74,3.63c-.84-.86-1.73-1.52-2.68-1.98-.95-.46-2.02-.68-3.2-.68-.69,0-1.27,.07-1.74,.2-.47,.14-.85,.31-1.15,.54s-.51,.47-.63,.74c-.12,.27-.18,.55-.18,.85,0,.42,.08,.77,.24,1.05,.16,.28,.44,.54,.83,.76,.39,.22,.93,.43,1.59,.63,.67,.2,1.52,.42,2.55,.67,1.04,.25,2.07,.54,3.09,.87,1.02,.33,1.95,.79,2.77,1.39s1.5,1.34,2.02,2.25,.78,2.07,.78,3.47c0,1.23-.2,2.35-.59,3.36Z"/><path class="cls-2" d="M193.82,41.42v20.83h-5.14v-20.83h-7.44v-5.07h20.02v5.07h-7.44Z"/><path class="cls-2" d="M220.02,62.25l-2.04-5.77h-9.47l-2.04,5.77h-5.55l9.92-25.9h5.03l9.84,25.9h-5.7Zm-5.48-15.39c-.27-.76-.52-1.5-.76-2.22-.24-.72-.41-1.32-.54-1.81-.12,.49-.3,1.1-.54,1.81s-.49,1.46-.76,2.22l-1.67,4.7h5.92l-1.67-4.7Z"/><path class="cls-2" d="M237.93,41.42v20.83h-5.14v-20.83h-7.44v-5.07h20.02v5.07h-7.44Z"/><path class="cls-2" d="M250.39,62.25v-25.9h17.95v5.07h-12.8v4.44h7.44v5.07h-7.44v6.25h13.36v5.07h-18.5Z"/></g></svg>