<?xml version="1.0" encoding="utf-8"?>
<!-- Generator: Adobe Illustrator 26.3.1, SVG Export Plug-In . SVG Version: 6.00 Build 0)  -->
<svg version="1.1" id="Layer_1" xmlns="http://www.w3.org/2000/svg" xmlns:xlink="http://www.w3.org/1999/xlink" x="0px" y="0px"
	 viewBox="0 0 36 36" style="enable-background:new 0 0 36 36;" xml:space="preserve">
<style type="text/css">
	.st0{fill:#4295D1;}
	.st1{fill:#FFFFFF;}
</style>
<g>
	<path class="st0" d="M36,18c0,9.9-8.1,18-18,18S0,27.9,0,18S8.1,0,18,0S36,8.1,36,18"/>
	<path class="st1" d="M32.2,15.3h-6.5l-5.4-9.5l-1.1,0.6l5,8.9H11.9l4.8-8.9l-1.1-0.6l-5.1,9.5H3.9v1.2h6L9,18l0.8,1.4h-6v1.2h6.6
		l5.4,9.7l1.1-0.6l-5.1-9.1h12.5l-5.1,9.1l1.1,0.6l5.4-9.7h6.4v-1.2h-5.7l0.8-1.4l-0.9-1.5h5.8L32.2,15.3L32.2,15.3z M25.9,18
		l-0.8,1.4H11.2L10.4,18l0.8-1.5H25L25.9,18L25.9,18z"/>
</g>
</svg>
