<?xml version="1.0" encoding="UTF-8"?><svg id="north-arrow" xmlns="http://www.w3.org/2000/svg" viewBox="0 0 71.16 72"><defs><style>.cls-1{fill:#fff;}.cls-2{fill:#a71c36;}</style></defs><rect class="cls-2" x="0" y="0" width="71.16" height="72" rx="13.67" ry="13.67"/><g><path class="cls-1" d="M8.44,54.87v-4.02H61.96v4.02H8.44Z"/><path class="cls-1" d="M12.94,61.39v-4.09H57.51v4.09H12.94Z"/></g><path class="cls-1" d="M57.51,25.94s.03-.09,.1-.28c1.38-.47,2.85-.97,4.35-1.49l-1.4-3.97c-1.61,.48-3.09,.93-4.65,1.4-.89-2.54-1.72-4.9-2.55-7.26-1.25-3.53-3.49-5.09-7.36-5.09H22.95c-3.97,0-6.16,1.53-7.44,5.16-.84,2.39-1.7,4.78-2.56,7.21l-4.62-1.43-1.38,3.99,4.47,1.51c-.56,1.93-1.42,3.67-1.5,5.44-.2,4.79-.09,9.59-.06,14.39,0,1.69,.78,2.42,2.53,2.47,1.8,.05,3.61,.08,5.4-.03,.46-.03,1.12-.53,1.27-.95,.33-.95,.84-1.2,1.84-1.2,9.06,.04,18.12,.03,27.18,0,.92,0,1.42,.21,1.75,1.11,.17,.45,.87,.99,1.36,1.02,1.74,.12,3.49,.08,5.24,.04,1.83-.04,2.59-.78,2.62-2.55,.03-1.89,.03-3.78,0-5.67-.06-4.66,.58-9.39-1.54-13.84v.02ZM20.09,14.93c.29-.65,1.44-1.34,2.2-1.35,8.1-.1,16.21-.1,24.31,0,.76,0,1.9,.71,2.19,1.37,1.01,2.28,1.73,4.68,2.61,7.16H17.48c.88-2.5,1.6-4.91,2.61-7.18Zm34.53,26.66H14.26c0-2.32,.12-4.6-.03-6.87-.17-2.56,.43-4.94,1.34-7.29,.28-.71,.62-1.03,1.47-1.02,11.61,.03,23.21,.01,34.82,.04,.42,0,1.13,.29,1.22,.58,.59,1.98,1.31,3.98,1.49,6.02,.25,2.78,.06,5.59,.06,8.54h-.01Z"/><path class="cls-1" d="M43.27,39.27H25.62c.67-1.3,1.22-2.49,1.91-3.61,.18-.29,.78-.46,1.19-.46,3.81-.03,7.62-.05,11.43,.02,.49,0,1.15,.42,1.42,.83,.64,.97,1.09,2.05,1.69,3.23h.01Z"/><path class="cls-1" d="M19.84,28.72c1.92-.03,3.33,1.28,3.35,3.13,.02,1.78-1.3,3.12-3.13,3.18-1.88,.06-3.41-1.27-3.47-3.04s1.39-3.23,3.25-3.26h0Z"/><path class="cls-1" d="M49.06,35.03c-1.93,.02-3.34-1.28-3.35-3.12,0-1.85,1.37-3.19,3.28-3.19s3.34,1.41,3.32,3.2c-.02,1.7-1.46,3.08-3.25,3.11Z"/></svg>