<?xml version="1.0" encoding="UTF-8"?>
<svg id="Layer_1" data-name="Layer 1" xmlns="http://www.w3.org/2000/svg" viewBox="0 0 69.33 73.62">
  <defs>
    <style>
      .cls-1 {
        fill: #d4e9f4;
        stroke-width: 0px;
      }
    </style>
  </defs>
  <path class="cls-1" d="m31.98,59.27c1.47,0,2.95-.56,4.07-1.69,2.26-2.26,2.26-5.9,0-8.15l-6.85-6.85h26.53c3.19,0,5.77-2.57,5.77-5.76s-2.57-5.77-5.77-5.77h-26.53l6.85-6.84c2.26-2.26,2.26-5.9,0-8.16-2.26-2.26-5.89-2.26-8.15,0-7.22,7.22-12.95,12.95-19.58,19.58-.66.66-.66,1.71,0,2.37l19.58,19.58c1.13,1.13,2.6,1.69,4.08,1.69"/>
</svg>