<?xml version="1.0" encoding="utf-8"?>
<!-- Generator: Adobe Illustrator 26.3.1, SVG Export Plug-In . SVG Version: 6.00 Build 0)  -->
<svg version="1.1" id="Layer_1" xmlns="http://www.w3.org/2000/svg" xmlns:xlink="http://www.w3.org/1999/xlink" x="0px" y="0px"
	 viewBox="0 0 36 36" style="enable-background:new 0 0 36 36;" xml:space="preserve">
<style type="text/css">
	.st0{fill:#2F6891;}
	.st1{fill:#FFFFFF;}
</style>
<path class="st0" d="M36,18c0,9.9-8.1,18-18,18S0,27.9,0,18S8,0,18,0S36,8,36,18"/>
<path class="st1" d="M32.7,16.1c-3,0-5.3-0.8-6.7-2.4c-2.1-2.3-1.9-5.6-1.9-5.7V7.5h-1.1V8c0,0.4-0.2,3.9,2.2,6.5
	c0.2,0.2,0.4,0.4,0.6,0.6c-0.1,0-0.2,0-0.2,0l0,0c0,0-4.4,1-7.5,1c-3,0.1-7-0.9-7.2-0.9c-0.2-0.1-0.4-0.1-0.6-0.1
	c0.2-0.2,0.4-0.4,0.6-0.6c2.4-2.6,2.2-6.1,2.2-6.5V7.5h-1.1v0.5c0,0,0.3,3.3-1.9,5.7c-1.5,1.6-3.7,2.4-6.7,2.4v1.1
	c1.5,0,2.9-0.2,4-0.6C7.1,17.1,7,17.5,7,18c0,0.4,0.1,0.9,0.3,1.3c-1.2-0.4-2.5-0.6-4-0.6v1.1c3,0,5.3,0.8,6.7,2.4
	c2.1,2.3,1.9,5.6,1.9,5.7v0.5H13v-0.5c0-0.4,0.2-3.9-2.2-6.5c-0.2-0.2-0.4-0.4-0.6-0.6c0.2,0,0.5-0.1,0.7-0.2c0.6-0.1,4.3-1,7.1-0.9
	c3.1,0.1,7.4,1,7.5,1v0c0.1,0,0.2,0,0.2,0c-0.2,0.2-0.4,0.4-0.6,0.6c-2.4,2.6-2.2,6.1-2.2,6.5v0.5h1.1v-0.5c0,0-0.3-3.3,1.9-5.7
	c1.5-1.6,3.7-2.4,6.8-2.4v-1.1c-1.5,0-2.9,0.2-4,0.6c0.2-0.4,0.3-0.8,0.3-1.3c0-0.4-0.1-0.9-0.3-1.3c1.2,0.4,2.5,0.6,4,0.6V16.1
	L32.7,16.1z M24.3,18c0-1,0.8-1.7,1.7-1.7s1.7,0.8,1.7,1.7c0,1-0.8,1.7-1.7,1.7S24.3,18.9,24.3,18 M10.6,19.6
	C10.6,19.6,10.5,19.6,10.6,19.6L10.6,19.6c-0.2,0.1-0.4,0.1-0.7,0.1c-1,0-1.7-0.8-1.7-1.7c0-1,0.8-1.7,1.7-1.7s1.7,0.8,1.7,1.7
	C11.6,18.7,11.2,19.3,10.6,19.6 M12.5,19.2c0.2-0.4,0.3-0.8,0.3-1.2s-0.1-0.8-0.3-1.2c1.4,0.3,3.4,0.5,5.1,0.5c0.1,0,0.3,0,0.4,0
	c1.8,0,3.9-0.4,5.5-0.6c-0.2,0.4-0.3,0.8-0.3,1.3s0.1,0.9,0.3,1.3c-1.6-0.3-3.7-0.6-5.5-0.6C16.2,18.6,14,18.9,12.5,19.2"/>
</svg>
