<svg xmlns="http://www.w3.org/2000/svg" viewBox="0 0 14 14">
  <defs>
    <style>
      .cls-1 {
        fill: #c00;
      }
    </style>
  </defs>
  <g id="Layer_2" data-name="Layer 2">
    <g id="Layer_1-2" data-name="Layer 1">
      <path class="cls-1" d="M7,14a.9.9,0,0,1-1-1A5,5,0,0,0,1,8,.9.9,0,0,1,0,7,.9.9,0,0,1,1,6,5,5,0,0,0,6,1,.9.9,0,0,1,7,0,.9.9,0,0,1,8,1a5,5,0,0,0,5,5,.9.9,0,0,1,1,1,.9.9,0,0,1-1,1,5,5,0,0,0-5,5A.9.9,0,0,1,7,14ZM4.6,7A6.9,6.9,0,0,1,7,9.4,6.9,6.9,0,0,1,9.4,7,6.9,6.9,0,0,1,7,4.6,6.9,6.9,0,0,1,4.6,7Z"/>
    </g>
  </g>
</svg>
