<?xml version="1.0" encoding="utf-8"?>
<!-- Generator: Adobe Illustrator 26.3.1, SVG Export Plug-In . SVG Version: 6.00 Build 0)  -->
<svg version="1.1" id="Layer_1" xmlns="http://www.w3.org/2000/svg" xmlns:xlink="http://www.w3.org/1999/xlink" x="0px" y="0px"
	 viewBox="0 0 36 36" style="enable-background:new 0 0 36 36;" xml:space="preserve">
<style type="text/css">
	.st0{fill:#9EADB5;}
	.st1{fill:#FFFFFF;}
</style>
<g>
	<path class="st0" d="M36,18c0,10-8.1,18-18,18S0,28,0,18S8.1,0,18,0S36,8.1,36,18"/>
	<rect x="4.4" y="13.3" class="st1" width="26.7" height="1.3"/>
	<rect x="4.4" y="11.2" class="st1" width="26.7" height="1.3"/>
	<path class="st1" d="M15.8,31.9h-1.3v-9.7c0-0.2,0.1-3.6,1.3-5.7c1.4-2.5,2.7-4.1,4.2-5.1c2.1-1.4,5.7-2.9,8.7-2.8h2.4v1.3h-2.4
		c-2.7-0.1-6.1,1.3-8,2.6c-1.3,0.9-2.5,2.4-3.8,4.7c-1,1.9-1.2,5.1-1.2,5.1L15.8,31.9L15.8,31.9z"/>
	<path class="st1" d="M19.7,31.9h-1.2v-9.7c0,0-0.1-3.2-1.1-5.1c-1.2-2.3-2.3-3.8-3.5-4.7c-1.4-1-4.4-2.7-7.2-2.6H4.4V8.6h2.3
		c3.1-0.1,6.5,1.7,8,2.9c1.3,1,2.6,2.6,3.8,5.1c1.1,2.1,1.2,5.5,1.2,5.6L19.7,31.9L19.7,31.9z"/>
	<path class="st1" d="M21.4,31.9h-1.3v-9.7c0-0.2,0.1-3.6,1.3-5.7c1.5-2.7,4.3-3.3,4.4-3.4l0.3,1.2c0,0-2.3,0.5-3.5,2.7
		c-1,1.9-1.2,5.1-1.2,5.1L21.4,31.9L21.4,31.9z"/>
	<path class="st1" d="M17.8,31.9h-1.3v-9.7c0,0-0.1-3.2-1.2-5.1c-1.2-2.2-3.5-2.7-3.5-2.7l0.3-1.2c0.1,0,2.9,0.6,4.4,3.4
		c1.2,2.1,1.3,5.5,1.3,5.7L17.8,31.9L17.8,31.9z"/>
</g>
</svg>
